<?xml version="1.0" encoding="iso-8859-1"?>
<!-- Generator: Adobe Illustrator 19.0.0, SVG Export Plug-In . SVG Version: 6.00 Build 0)  -->
<svg fill="#FFFFFF" version="1.1" id="Capa_1" xmlns="http://www.w3.org/2000/svg" xmlns:xlink="http://www.w3.org/1999/xlink" x="0px" y="0px"
	 viewBox="0 0 412.16 412.16" style="enable-background:new 0 0 412.16 412.16;" xml:space="preserve">
<g>
	<g>
		<path d="M337.152,112.128c-0.512,0-1.024,0-1.536,0H76.544c-8.704,0-15.36,6.656-15.36,15.36c0,0.512,0,1.024,0,2.048
			l25.6,223.744c3.584,33.792,32.256,58.88,66.048,58.88h110.08c34.304,0,62.976-26.112,66.048-60.416l22.016-222.72
			C351.488,120.832,345.344,113.152,337.152,112.128z"/>
	</g>
</g>
<g>
	<g>
		<path d="M274.176,49.152V35.84c0-19.968-15.872-35.84-35.84-35.84h-64.512c-19.968,0-35.84,15.872-35.84,35.84v13.312H23.808
			v30.72h364.544v-30.72H274.176z M243.456,49.152L243.456,49.152h-74.752V35.84c0-3.072,2.048-5.12,5.12-5.12h64.512
			c3.072,0,5.12,2.048,5.12,5.12V49.152z"/>
	</g>
</g>
<g>
</g>
<g>
</g>
<g>
</g>
<g>
</g>
<g>
</g>
<g>
</g>
<g>
</g>
<g>
</g>
<g>
</g>
<g>
</g>
<g>
</g>
<g>
</g>
<g>
</g>
<g>
</g>
<g>
</g>
</svg>
