<svg id="Capa_1" enable-background="new 0 0 512 512" height="512" viewBox="0 0 512 512" width="512" xmlns="http://www.w3.org/2000/svg"><g><g><path clip-rule="evenodd" d="m377.536 464.39.454-58.847c-6.35.368-11.934 3.345-18.737 10.432-7.172 7.483-13.861 11.225-20.551 11.225l-.454 36.454c-.028 2.409 1.984 4.394 4.394 4.394h31.266c2.409-.002 3.599-1.249 3.628-3.658z" fill="#ea9a58" fill-rule="evenodd"/></g><g fill="#ea9a58"><path clip-rule="evenodd" d="m172.675 465.098.454-37.928c-6.321-.368-12.699-4.11-19.502-11.197-7.143-7.455-13.833-11.197-20.495-11.225h-.057l-.454 60.35c-.028 2.239 1.843 4.082 4.082 4.082h31.862c2.268 0 4.082-1.842 4.11-4.082z" fill-rule="evenodd"/><path d="m168.565 476.68h-31.862c-3.075 0-6.084-1.26-8.253-3.457-2.185-2.213-3.366-5.132-3.327-8.22l.508-67.755h7.444c8.811.037 17.275 4.465 25.967 13.537 5.431 5.658 10.319 8.653 14.523 8.898l7.148.417-.539 45.097c-.081 6.331-5.29 11.483-11.609 11.483zm-28.443-11.559v.034c0-.012 0-.023 0-.034zm.025-3.441h25.068l.34-28.448c-5.764-1.979-11.489-5.97-17.34-12.064-2.742-2.862-5.304-5.022-7.715-6.499z"/></g><g><path clip-rule="evenodd" d="m44.464 332.72h54.029 2.778l17.396-18.897-17.396-18.691h-56.807v-206.844c0-10.148-8.306-18.482-18.482-18.482s-18.482 8.334-18.482 18.482v206.845 37.587z" fill="#fde588" fill-rule="evenodd"/></g><g><path clip-rule="evenodd" d="m410.701 437.829v-97.399-45.298-20.665h-309.431v20.665 45.298 97.399c0 4.762.142 6.463 4.365 2.069l6.406-6.661c14.372-14.967 26.759-14.967 41.131 0s26.759 14.967 41.131 0 26.759-14.967 41.131 0c7.172 7.483 13.861 11.225 20.551 11.225s13.38-3.742 20.58-11.225c14.343-14.967 26.759-14.967 41.103 0 14.372 14.967 26.759 14.967 41.131 0s26.759-14.967 41.131 0l6.406 6.661c4.224 4.394 4.365 2.693 4.365-2.069z" fill="#fe8d94" fill-rule="evenodd"/></g><g><path clip-rule="evenodd" d="m340.033 105.806v24.463c0 13.068 10.715 23.754 23.783 23.754s23.754-10.687 23.754-23.754v-24.463c0-2.381-1.928-4.309-4.309-4.309h-38.891c-2.381 0-4.337 1.928-4.337 4.309z" fill="#eff6ff" fill-rule="evenodd"/></g><g><path clip-rule="evenodd" d="m368.125 105.806v24.463c0 9.609-5.783 17.943-14.032 21.657 2.976 1.361 6.265 2.098 9.723 2.098 13.068 0 23.754-10.687 23.754-23.754v-24.463c0-2.381-1.928-4.309-4.309-4.309h-19.446c2.382-.001 4.31 1.927 4.31 4.308z" fill="#d9eeff" fill-rule="evenodd"/></g><g><path clip-rule="evenodd" d="m231.92 116.889h55.474v46.177h-55.474z" fill="#eff6ff" fill-rule="evenodd"/></g><g><path clip-rule="evenodd" d="m231.92 122.842h55.474v-11.197c0-20.608-11.027-17.461-12.954-29.31v-6.095l-14.4-9.581-15.165 9.581v6.095c-1.928 11.849-12.954 8.702-12.954 29.31v11.197z" fill="#ccf49f" fill-rule="evenodd"/></g><g><path clip-rule="evenodd" d="m274.439 76.24v-28.034c0-2.948-2.438-5.386-5.414-5.386h-18.737c-2.976 0-5.414 2.438-5.414 5.386v28.034z" fill="#7e707d" fill-rule="evenodd"/></g><g><path clip-rule="evenodd" d="m287.394 189.967v-32.854h-55.474v32.854l27.737 23.244z" fill="#ccf49f" fill-rule="evenodd"/></g><g><path clip-rule="evenodd" d="m259.643 76.24h14.797v-28.034c0-2.976-2.438-5.386-5.414-5.386h-14.769c3.345 0 5.386 2.438 5.386 5.386v19.729z" fill="#6a5c6b" fill-rule="evenodd"/></g><g><path clip-rule="evenodd" d="m269.507 116.124v5.272 1.446h17.887v-5.953-5.244c0-20.608-11.027-17.461-12.954-29.31v-6.095h-14.797v15.477c1.927 11.821 9.864 3.827 9.864 24.407z" fill="#b3e59f" fill-rule="evenodd"/></g><g><path clip-rule="evenodd" d="m269.507 122.842h17.887v34.271h-17.887z" fill="#d9eeff" fill-rule="evenodd"/></g><g><path clip-rule="evenodd" d="m269.507 163.066v26.901h17.887v-26.901-5.953h-17.887z" fill="#b3e59f" fill-rule="evenodd"/></g><g><path clip-rule="evenodd" d="m232.77 189.967h-59.698-52.838c-15.137 0-18.964 10.63-18.964 23.669v27.666h309.431v-27.666c0-13.011-3.798-23.669-18.936-23.669h-52.866-50.655-12.473-19.786z" fill="#fe8d94" fill-rule="evenodd"/></g><g><path clip-rule="evenodd" d="m131.743 105.806v24.463c0 13.068 10.687 23.754 23.754 23.754 13.068 0 23.783-10.687 23.783-23.754v-24.463c0-2.381-1.956-4.309-4.337-4.309h-38.891c-2.382 0-4.309 1.928-4.309 4.309z" fill="#eff6ff" fill-rule="evenodd"/></g><g><path clip-rule="evenodd" d="m159.834 105.806v24.463c0 9.609-5.783 17.943-14.06 21.657 2.976 1.361 6.265 2.098 9.723 2.098 13.068 0 23.783-10.687 23.783-23.754v-24.463c0-2.381-1.956-4.309-4.337-4.309h-19.446c2.381-.001 4.337 1.927 4.337 4.308z" fill="#d9eeff" fill-rule="evenodd"/></g><g><path clip-rule="evenodd" d="m467.508 332.72h-54.029-2.778l-23.131-22.306 23.131-15.281h56.806v-206.845c0-10.148 8.334-18.482 18.482-18.482 10.176 0 18.51 8.334 18.51 18.482v206.845 37.587z" fill="#fde588" fill-rule="evenodd"/></g><g><path clip-rule="evenodd" d="m359.054 189.967c15.137 0 18.935 10.658 18.935 23.669v27.666h32.712v-27.666c0-13.011-3.798-23.669-18.936-23.669h-27.95z" fill="#ff6d75" fill-rule="evenodd"/></g><g><path clip-rule="evenodd" d="m410.701 274.468h-32.712v20.665 45.298 80.419 1.219c.113-.028.198-.028.312-.028 7.03-.425 14.06 3.317 21.628 11.197l6.406 6.661c4.224 4.394 4.365 2.693 4.365-2.069v-97.4-7.71-37.587-20.665z" fill="#ff6d75" fill-rule="evenodd"/></g><g><path clip-rule="evenodd" d="m101.27 241.302h309.431v33.165h-309.431z" fill="#fde588" fill-rule="evenodd"/></g><g><path clip-rule="evenodd" d="m377.989 241.302h32.712v33.165h-32.712z" fill="#fdd76f" fill-rule="evenodd"/></g><path d="m504.5 154.04c4.143 0 7.5-3.358 7.5-7.5v-58.252c0-14.327-11.668-25.982-26.011-25.982-14.326 0-25.981 11.655-25.981 25.982v199.345h-41.807v-73.996c0-27.12-16.562-31.169-26.436-31.169h-20.449v-21.859c13.622-3.369 23.754-15.69 23.754-30.339v-24.463c0-6.511-5.297-11.809-11.809-11.809h-38.891c-6.527 0-11.837 5.297-11.837 11.809v24.463c0 14.651 10.145 26.974 23.783 30.34v21.858h-61.423v-70.822c0-14.089-4.523-19.825-9.562-24.916-1.964-1.983-2.938-2.968-3.392-5.08v-33.416c0-7.121-5.793-12.914-12.914-12.914h-18.737c-7.121 0-12.914 5.793-12.914 12.914v33.416c-.453 2.112-1.428 3.097-3.392 5.08-5.039 5.091-9.562 10.827-9.562 24.916v70.822h-61.423v-21.858c13.639-3.366 23.783-15.689 23.783-30.34v-24.463c0-6.511-5.31-11.809-11.837-11.809h-38.892c-6.512 0-11.809 5.297-11.809 11.809v24.463c0 14.649 10.132 26.97 23.754 30.339v21.859h-27.763c-9.884 0-26.464 4.049-26.464 31.169v73.996h-41.805v-199.345c0-14.327-11.655-25.982-25.981-25.982-14.328 0-25.983 11.655-25.983 25.982v58.252c0 4.142 3.357 7.5 7.5 7.5s7.5-3.358 7.5-7.5v-58.252c0-6.056 4.927-10.982 10.982-10.982s10.981 4.926 10.981 10.982v206.845c0 4.142 3.357 7.5 7.5 7.5h49.307v22.587h-78.77v-144.041c0-4.142-3.357-7.5-7.5-7.5s-7.5 3.358-7.5 7.5v151.541 136.46c0 4.142 3.357 7.5 7.5 7.5s7.5-3.358 7.5-7.5v-60.007l78.771-63.066v91.722c0 3.713 0 9.325 5.459 11.523 5.564 2.241 9.944-2.311 11.812-4.255l6.41-6.666c2.727-2.84 5.272-4.981 7.668-6.458v33.127c0 6.385 5.194 11.58 11.58 11.58h31.87c6.401 0 11.609-5.195 11.609-11.58v-13.955c6.51-1.659 12.952-5.859 19.534-12.713 5.763-6.002 10.721-8.92 15.155-8.92s9.393 2.917 15.15 8.915c8.729 9.108 17.223 13.536 25.966 13.536 8.729 0 17.229-4.424 25.995-13.536 5.749-5.999 10.7-8.915 15.137-8.915 4.436 0 9.387 2.916 15.141 8.92 6.231 6.488 12.336 10.588 18.492 12.415v12.803c0 6.562 5.334 11.9 11.89 11.9h31.271c6.556 0 11.89-5.338 11.89-11.9v-32.287c2.7 1.467 5.592 3.811 8.724 7.073l6.405 6.661c1.869 1.945 6.248 6.496 11.813 4.256 5.459-2.198 5.459-7.81 5.459-11.523v-91.724l78.799 63.068v60.006c0 4.142 3.357 7.5 7.5 7.5s7.5-3.358 7.5-7.5v-136.46-151.541c0-4.142-3.357-7.5-7.5-7.5s-7.5 3.358-7.5 7.5v144.041h-78.799v-22.587h49.307c4.143 0 7.5-3.358 7.5-7.5v-206.845c0-6.056 4.927-10.982 10.981-10.982 6.071 0 11.011 4.926 11.011 10.982v58.252c0 4.142 3.357 7.5 7.5 7.5zm-489.5 235.918v-49.738h62.124zm332.533-259.689v-21.272h32.537v21.272c0 8.963-7.291 16.254-16.254 16.254-8.978 0-16.283-7.291-16.283-16.254zm-95.159-79.949h14.565v18.42h-14.565zm-12.954 61.325c0-9.087 2.19-11.3 5.223-14.362 2.7-2.728 6.385-6.459 7.596-13.542h14.837c1.211 7.084 4.895 10.815 7.596 13.542 3.032 3.062 5.223 5.275 5.223 14.362v3.697h-40.475zm0 18.697h40.474v19.271h-40.474zm0 34.271h40.474v17.854h-40.474zm-100.177-34.344v-21.272h32.537v21.272c0 8.963-7.305 16.254-16.283 16.254-8.963 0-16.254-7.291-16.254-16.254zm25.937 331.411h-25.06v-29.69c2.389 1.476 4.925 3.612 7.643 6.442 5.868 6.11 11.625 10.103 17.417 12.075zm205.62-1.13h-25.05v-9.713c6.145-1.833 12.239-5.929 18.458-12.405 2.323-2.419 4.512-4.328 6.592-5.756zm32.401-165.418v37.587 93.185c-7.994-7.66-15.815-11.393-23.837-11.393-8.735 0-17.232 4.426-25.975 13.53-5.75 5.989-10.699 8.905-15.126 8.919-.005 0-.009-.001-.014-.001-.01 0-.019.001-.029.001-4.432-.005-9.386-2.922-15.138-8.914-8.729-9.108-17.223-13.536-25.966-13.536-8.744 0-17.237 4.428-25.956 13.525-5.778 6.006-10.742 8.925-15.176 8.925-4.437 0-9.387-2.916-15.141-8.92-8.743-9.104-17.24-13.53-25.976-13.53s-17.232 4.426-25.976 13.53c-5.763 6.002-10.721 8.92-15.155 8.92s-9.393-2.917-15.155-8.92c-8.697-9.056-17.15-13.479-25.837-13.526-.042-.001-.083-.006-.126-.006-.025 0-.049.003-.074.004-8.001.019-15.803 3.751-23.775 11.39v-93.182-37.587-13.165h294.431v13.164zm0-61.33h-127.798c-4.143 0-7.5 3.358-7.5 7.5s3.357 7.5 7.5 7.5h127.798v18.166h-294.43v-18.166h132.021c4.143 0 7.5-3.358 7.5-7.5s-3.357-7.5-7.5-7.5h-132.021v-20.166c0-14.933 5.423-16.169 11.464-16.169h271.531c6.026 0 11.436 1.237 11.436 16.169v20.166zm93.799 106.418v49.741l-62.147-49.741z"/></g></svg>