<svg height="512" viewBox="0 0 58 59" width="512" xmlns="http://www.w3.org/2000/svg"><g id="Page-1" fill="none" fill-rule="evenodd"><g id="022---Perfume" fill-rule="nonzero" transform="translate(-1)"><path id="Shape" d="m14.83 19.57c-7.58336606 3.0307016-12.86395659 10.0126767-13.71559465 18.1347026-.85163805 8.122026 2.86582685 16.0474955 9.65559465 20.5852974.6732964.4564495 1.4665926.7034847 2.28.71h19.91c.7467513.0097133 1.4800906-.1988193 2.11-.6 6.2056248-4.0621858 9.9406393-10.9830586 9.93-18.4 0-.63-.02-1.28-.08-1.93-.7460549-8.2562342-6.0516311-15.3998412-13.74-18.5z" fill="#84b5cb"/><path id="Shape" d="m45.0000227 40c.0106166 7.4169414-3.7243979 14.3378142-9.9300227 18.4-.6299094.4011807-1.3632487.6097133-2.11.6h-19.91c-.8134074-.0065153-1.6067036-.2535505-2.28-.71-4.64076696-3.1078142-7.92888942-7.8612956-9.2-13.3 6.77-.25 6.96-4.99 14.1-4.99 7.33 0 7.33 5 14.67 5s7.33-5 14.6600227-5z" fill="#ff5364"/><path id="Shape" d="m5 41c-.55228475 0-1-.4477153-1-1-.02546474-6.4744239 3.26789421-12.5104873 8.726-15.993.464384-.2757508 1.0638165-.1329425 1.3539842.3225723.2901678.4555148.1662139 1.059128-.2799842 1.3634277-4.88071011 3.1165193-7.82454682 8.5161951-7.8 14.307 0 .5522847-.44771525 1-1 1z" fill="#fff"/><path id="Shape" d="m29 4v9h-12v-9c0-1.65685425 1.3431458-3 3-3h6c1.6568542 0 3 1.34314575 3 3z" fill="#f3d55b"/><circle id="Oval" cx="23" cy="7" fill="#b19046" r="2"/><circle id="Oval" cx="15.5" cy="46.5" fill="#fff" r="2.5"/><circle id="Oval" cx="9" cy="50" fill="#fff" r="1"/><circle id="Oval" cx="13" cy="53" fill="#fff" r="1"/><g fill="#ff5364"><path id="Shape" d="m12 4c-.1543931.00154505-.307047-.03268227-.446-.1l-4-2c-.49567556-.24659514-.69759514-.84832444-.451-1.344.24659514-.49567556.84832444-.69759514 1.344-.451l4 2c.415452.20705992.6337945.67279068.5272238 1.12458366-.1065707.45179297-.510032.77085024-.9742238.77041634z"/><path id="Shape" d="m8 14c-.46437914.0008998-.86827203-.3180058-.97511179-.7699285-.10683975-.4519226.11149081-.9179291.52711179-1.1250715l4-2c.4942949-.24687128 1.0951287-.0462949 1.342.448s.0462949 1.0951287-.448 1.342l-4 2c-.13853658.0690463-.29121052.1049898-.446.105z"/><path id="Shape" d="m11 8h-4c-.55228475 0-1-.44771525-1-1s.44771525-1 1-1h4c.5522847 0 1 .44771525 1 1s-.4477153 1-1 1z"/></g><path id="Shape" d="m32.959 56-3.959-.006c-.5522847 0-1-.4477153-1-1s.4477153-1 1-1l3.653.006c1.5122823-1.0451597 2.8452219-2.328456 3.947-3.8.2143593-.2858125.5649147-.4355548.9196153-.3928204.3547005.0427345.6596588.2714532.8.6000001s.0947441.7070078-.1196153.9928203c-1.2970999 1.7333442-2.8809001 3.2322557-4.683 4.432-.1651966.110155-.3594461.1686387-.558.168z" fill="#df4d60"/><path id="Shape" d="m40.55 19h-8.61l.03-.03-.03-4.97h8.61z" fill="#b19046"/><path id="Shape" d="m59 16.5c0 4.14-4.25 7.5-9.5 7.5-4.14 0-7.66-2.09-8.95-5-.7333087-1.5860054-.7333087-3.4139946 0-5 1.29-2.91 4.81-5 8.95-5 5.25 0 9.5 3.36 9.5 7.5z" fill="#802d40"/><path id="Shape" d="m44 17.5c-.5522847 0-1-.4477153-1-1 0-2.173 2.612-4.5 6.5-4.5.5522847 0 1 .4477153 1 1s-.4477153 1-1 1c-2.747 0-4.5 1.48-4.5 2.5 0 .5522847-.4477153 1-1 1z" fill="#fff"/><path id="Shape" d="m33 16.5c.0018579.9281576-.3692701 1.8181442-1.03 2.47l-.03.03c-.2270415.2227385-.4825994.4144069-.76.57-.51544.2810345-1.0929247.4288431-1.68.43h-13c-.5845106.0037002-1.1599619-.1444699-1.67-.43-1.1258962-.611283-1.827843-1.7888659-1.83-3.07.0093024-1.9291303 1.5708697-3.4906976 3.5-3.5h13c1.9293565.00876 3.49124 1.5706435 3.5 3.5z" fill="#f0c419"/></g></g></svg>