<svg id="Flat" height="512" viewBox="0 0 512 512" width="512" xmlns="http://www.w3.org/2000/svg"><path d="m152 208c-17.673 0-32 21.49-32 48s14.327 48 32 48h272v-96z" fill="#7a4830"/><g fill="#b37a60"><path d="m360 248h-48a8 8 0 0 1 0-16h48a8 8 0 0 1 0 16z"/><path d="m200 248h-40a8 8 0 0 1 0-16h40a8 8 0 0 1 0 16z"/><path d="m280 248h-48a8 8 0 0 1 0-16h48a8 8 0 0 1 0 16z"/><path d="m392 280h-64a8 8 0 0 1 0-16h64a8 8 0 0 1 0 16z"/><path d="m168 280h-32a8 8 0 0 1 0-16h32a8 8 0 0 1 0 16z"/><path d="m296 280h-96a8 8 0 0 1 0-16h96a8 8 0 0 1 0 16z"/></g><ellipse cx="424" cy="256" fill="#c48669" rx="32" ry="48"/><path d="m120 304c-17.673 0-32 21.49-32 48s14.327 48 32 48h336v-96z" fill="#694435"/><path d="m392 344h-48a8 8 0 0 1 0-16h48a8 8 0 0 1 0 16z" fill="#95573a"/><path d="m168 344h-40a8 8 0 0 1 0-16h40a8 8 0 0 1 0 16z" fill="#95573a"/><path d="m424 376h-64a8 8 0 0 1 0-16h64a8 8 0 0 1 0 16z" fill="#95573a"/><path d="m136 376h-32a8 8 0 0 1 0-16h32a8 8 0 0 1 0 16z" fill="#95573a"/><path d="m328 376h-160a8 8 0 0 1 0-16h160a8 8 0 0 1 0 16z" fill="#95573a"/><ellipse cx="456" cy="352" fill="#c48669" rx="32" ry="48"/><path d="m56 304c-17.673 0-32 21.49-32 48s14.327 48 32 48h272v-96z" fill="#95573a"/><path d="m264 344h-48a8 8 0 0 1 0-16h48a8 8 0 0 1 0 16z" fill="#b37a60"/><path d="m104 344h-40a8 8 0 0 1 0-16h40a8 8 0 0 1 0 16z" fill="#b37a60"/><path d="m184 344h-48a8 8 0 0 1 0-16h48a8 8 0 0 1 0 16z" fill="#b37a60"/><path d="m296 376h-64a8 8 0 0 1 0-16h64a8 8 0 0 1 0 16z" fill="#b37a60"/><path d="m72 376h-32a8 8 0 0 1 0-16h32a8 8 0 0 1 0 16z" fill="#b37a60"/><path d="m200 376h-96a8 8 0 0 1 0-16h96a8 8 0 0 1 0 16z" fill="#b37a60"/><ellipse cx="328" cy="352" fill="#c48669" rx="32" ry="48"/><path d="m88 208c-17.673 0-32 21.49-32 48s14.327 48 32 48h272v-96z" fill="#694435"/><path d="m296 248h-48a8 8 0 0 1 0-16h48a8 8 0 0 1 0 16z" fill="#95573a"/><path d="m136 248h-40a8 8 0 0 1 0-16h40a8 8 0 0 1 0 16z" fill="#95573a"/><path d="m216 248h-48a8 8 0 0 1 0-16h48a8 8 0 0 1 0 16z" fill="#95573a"/><path d="m328 280h-64a8 8 0 0 1 0-16h64a8 8 0 0 1 0 16z" fill="#95573a"/><path d="m104 280h-32a8 8 0 0 1 0-16h32a8 8 0 0 1 0 16z" fill="#95573a"/><path d="m232 280h-96a8 8 0 0 1 0-16h96a8 8 0 0 1 0 16z" fill="#95573a"/><ellipse cx="360" cy="256" fill="#c48669" rx="32" ry="48"/><path d="m120 112c-17.673 0-32 21.49-32 48s14.327 48 32 48h272v-96z" fill="#95573a"/><path d="m328 152h-48a8 8 0 0 1 0-16h48a8 8 0 0 1 0 16z" fill="#b37a60"/><path d="m168 152h-40a8 8 0 0 1 0-16h40a8 8 0 0 1 0 16z" fill="#b37a60"/><path d="m248 152h-48a8 8 0 0 1 0-16h48a8 8 0 0 1 0 16z" fill="#b37a60"/><path d="m360 184h-64a8 8 0 0 1 0-16h64a8 8 0 0 1 0 16z" fill="#b37a60"/><path d="m136 184h-32a8 8 0 0 1 0-16h32a8 8 0 0 1 0 16z" fill="#b37a60"/><path d="m264 184h-96a8 8 0 0 1 0-16h96a8 8 0 0 1 0 16z" fill="#b37a60"/><ellipse cx="392" cy="160" fill="#c48669" rx="32" ry="48"/></svg>