<svg id="Capa_1" enable-background="new 0 0 330.198 330.198" height="512" viewBox="0 0 330.198 330.198" width="512" xmlns="http://www.w3.org/2000/svg"><g><ellipse cx="170.931" cy="194.744" fill="#fcd462" rx="135.43" ry="135.43" transform="matrix(.707 -.707 .707 .707 -87.641 177.906)"/><path d="m298.068 241.403c-19 51.813-68.729 88.795-127.133 88.795-74.787 0-135.421-60.634-135.421-135.47 0-40.18 17.497-76.29 45.318-101.106-5.38 14.589-8.288 30.293-8.288 46.724 0 74.787 60.634 135.421 135.421 135.421 34.606 0 66.159-12.99 90.103-34.364z" fill="#f7be56"/><path d="m170.931 67.254c-11.811.222-23.67 1.263-27.138 7.997-3.6 6.542 8.056 19.204 27.138 19.237 19.081-.033 30.738-12.695 27.138-19.237-3.467-6.735-15.327-7.773-27.138-7.997z" fill="#f7be56"/><path d="m191.187 1.035c-36.959 24.802-26.263 77.798-26.133 78.41.589 2.752 3.015 4.637 5.727 4.637.401 0 .807-.04 1.213-.129 3.164-.667 5.189-3.773 4.526-6.937-.444-2.111-9.105-45.743 21.212-66.189 1.665-1.123 2.741-2.936 2.741-4.944.001-4.758-5.335-7.5-9.286-4.848z" fill="#44c4a1"/><path d="m170.785 42.435s-113.828-49.097-146.968 65.053c0 0 99.389 18.412 146.968-65.053z" fill="#44c4a1"/><path d="m170.785 42.435s-99.015-1.731-136.352 58.319c0 0 33.126-45.387 136.352-58.319z" fill="#3ea69b"/></g></svg>