<?xml version="1.0" encoding="iso-8859-1"?>
<!-- Generator: Adobe Illustrator 19.0.0, SVG Export Plug-In . SVG Version: 6.00 Build 0)  -->
<svg version="1.1" id="Capa_1" xmlns="http://www.w3.org/2000/svg" xmlns:xlink="http://www.w3.org/1999/xlink" x="0px" y="0px"
	 viewBox="0 0 512 512" style="enable-background:new 0 0 512 512;" xml:space="preserve">
<path style="fill:#00B571;" d="M251.849,462.337C250.176,460.935,210.02,428,134.378,428c-75.641,0-115.797,32.935-117.47,34.336
	L7.768,470l9.141,7.664C18.581,479.066,58.737,512,134.378,512c75.642,0,115.798-32.934,117.471-34.336L260.99,470L251.849,462.337z
	"/>
<path style="fill:#00935C;" d="M260.989,470l-9.141-7.664C250.176,460.935,210.02,428,134.378,428
	c-75.641,0-115.797,32.935-117.47,34.336L7.768,470"/>
<path style="fill:#00B571;" d="M259.816,365.803c-1.664-1.163-41.615-28.468-116.771-28.468
	c-75.157,0-115.108,27.306-116.772,28.468L14.537,374l11.735,8.198c1.664,1.163,41.615,28.469,116.772,28.469
	c75.156,0,115.107-27.307,116.771-28.469L271.552,374L259.816,365.803z"/>
<path style="fill:#00935C;" d="M271.552,374l-11.735-8.198c-1.664-1.163-41.615-28.468-116.771-28.468
	c-75.157,0-115.108,27.306-116.772,28.468L14.537,374"/>
<path style="fill:#00B571;" d="M261.779,304.407c-1.221-1.622-30.727-39.979-102.172-63.304
	c-71.445-23.324-117.898-9.765-119.842-9.177l-13.699,4.151l8.611,11.435c1.221,1.622,30.726,39.979,102.171,63.303
	c32.718,10.682,60.188,13.627,80.549,13.627c24.102,0,38.24-4.131,39.294-4.45l13.699-4.151L261.779,304.407z"/>
<path style="fill:#00935C;" d="M270.391,315.841l-8.611-11.435c-1.221-1.622-30.727-39.979-102.172-63.304
	c-71.445-23.324-117.898-9.765-119.842-9.177l-13.699,4.151"/>
<path style="fill:#00B571;" d="M262.781,231.038c-5.84-14.209-23.021-47.538-64.855-79.081
	c-54.695-41.241-100.414-41.17-102.342-41.156l-12.938,0.154l3.411,12.481c0.507,1.852,13.025,45.833,67.72,87.073
	c38.673,29.161,73.018,37.646,90.048,40.108c0.791,0.114,1.581,0.17,2.366,0.17C255.451,250.789,263.953,242.983,262.781,231.038z"
	/>
<g>
	<path style="fill:#00935C;" d="M258.452,245.333c3.104-3.442,4.912-8.357,4.329-14.296c-5.84-14.209-23.021-47.538-64.855-79.081
		c-54.695-41.241-100.414-41.17-102.342-41.156l-12.938,0.154"/>
	<path style="fill:#00935C;" d="M260.15,462.337C261.822,460.935,301.979,428,377.621,428c75.641,0,115.797,32.935,117.469,34.336
		l9.142,7.664l-9.142,7.664C493.418,479.066,453.262,512,377.621,512c-75.642,0-115.799-32.934-117.471-34.336L251.01,470
		L260.15,462.337z"/>
</g>
<path style="fill:#00784B;" d="M251.01,470l9.141-7.664c1.671-1.401,41.828-34.336,117.47-34.336
	c75.641,0,115.797,32.935,117.469,34.336l9.142,7.664"/>
<path style="fill:#00935C;" d="M252.183,365.803c1.664-1.163,41.615-28.468,116.771-28.468c75.157,0,115.108,27.306,116.772,28.468
	L497.462,374l-11.735,8.198c-1.664,1.163-41.615,28.469-116.772,28.469c-75.156,0-115.107-27.307-116.771-28.469L240.447,374
	L252.183,365.803z"/>
<path style="fill:#00784B;" d="M240.447,374l11.735-8.198c1.664-1.163,41.615-28.468,116.771-28.468
	c75.157,0,115.108,27.306,116.772,28.468L497.462,374"/>
<path style="fill:#00935C;" d="M250.219,304.407c1.221-1.622,30.728-39.979,102.172-63.304
	c71.446-23.324,117.898-9.765,119.843-9.177l13.699,4.151l-8.612,11.435c-1.221,1.622-30.725,39.979-102.17,63.303
	c-32.718,10.682-60.188,13.627-80.549,13.627c-24.102,0-38.24-4.131-39.295-4.45l-13.699-4.151L250.219,304.407z"/>
<path style="fill:#00784B;" d="M241.607,315.841l8.611-11.435c1.221-1.622,30.728-39.979,102.172-63.304
	c71.446-23.324,117.898-9.765,119.843-9.177l13.699,4.151"/>
<path style="fill:#00935C;" d="M249.218,231.038c5.84-14.209,23.021-47.538,64.854-79.081
	c54.695-41.241,100.415-41.17,102.343-41.156l12.938,0.154l-3.411,12.481c-0.507,1.852-13.025,45.833-67.72,87.073
	c-38.673,29.161-73.018,37.646-90.049,40.108c-0.791,0.114-1.58,0.17-2.365,0.17C256.547,250.789,248.045,242.983,249.218,231.038z"
	/>
<path style="fill:#00784B;" d="M253.547,245.333c-3.104-3.442-4.912-8.357-4.329-14.296c5.84-14.209,23.021-47.538,64.854-79.081
	c54.695-41.241,100.415-41.17,102.343-41.156l12.938,0.154"/>
<path style="fill:#00B571;" d="M263.746,9.492L255.999,0l-7.747,9.492c-1.181,1.447-28.92,36.182-28.92,101.369
	s27.739,99.922,28.92,101.369l7.747,9.492l7.747-9.492c1.182-1.447,28.92-36.182,28.92-101.369
	C292.666,45.673,264.928,10.938,263.746,9.492z"/>
<path style="fill:#00935C;" d="M255.999,221.721l7.747-9.492c1.182-1.447,28.92-36.182,28.92-101.369
	c0-65.188-27.738-99.922-28.92-101.369L255.999,0"/>
<rect x="241" y="202.67" style="fill:#00784B;" width="30" height="309.33"/>
<rect x="256" y="202.67" style="fill:#00623D;" width="15" height="309.33"/>
<g>
</g>
<g>
</g>
<g>
</g>
<g>
</g>
<g>
</g>
<g>
</g>
<g>
</g>
<g>
</g>
<g>
</g>
<g>
</g>
<g>
</g>
<g>
</g>
<g>
</g>
<g>
</g>
<g>
</g>
</svg>
